<svg width="421" height="127" viewBox="0 0 421 127" fill="none" xmlns="http://www.w3.org/2000/svg">
<g filter="url(#filter0_d_3264_4952)">
<path d="M51 69.0432C52.8586 63.9932 55.3349 57.1595 57.3562 52.0226C57.8168 50.852 59.2813 45.7755 60.9934 44.7482C65.0933 42.2883 72.2699 51.5205 74.2356 53.647C75.9404 55.4913 82.8804 66.3602 86.0653 66.0063C90.3032 65.5354 92.5805 57.6054 93.3043 54.4238C94.2716 50.1722 93.9728 45.4328 98.9896 44.1126C103.69 42.8757 106.582 46.1052 109.477 49.4095C112.992 53.4194 117.042 61.8555 122.366 63.711C129.372 66.1523 132.705 56.4452 134.902 52.0932C140.424 41.1562 157.243 54.6171 163.364 58.4848C165.44 59.796 174.026 65.7748 177.136 67.101C181.686 69.0414 183.257 66.491 184.41 62.4751C185 60.4205 184.511 57.9778 185.682 56.1895C188.104 52.4913 198.66 57.286 200.336 57.8492C213.134 62.1487 226.934 70.6591 240.204 63.8876C245.277 61.299 245.735 59.7814 251.857 59.0145C261.641 57.7887 271.445 60.8382 280.919 62.6516C296.065 65.5505 309.246 60.8661 324.318 59.3676C337.144 58.0924 350.266 59.0798 362.95 56.6838C365.309 56.2383 367.673 55.6951 370.083 55.6951" stroke="#663399" stroke-width="11" stroke-linecap="round"/>
</g>
<defs>
<filter id="filter0_d_3264_4952" x="0.978046" y="0.941705" width="419.125" height="125.243" filterUnits="userSpaceOnUse" color-interpolation-filters="sRGB">
<feFlood flood-opacity="0" result="BackgroundImageFix"/>
<feColorMatrix in="SourceAlpha" type="matrix" values="0 0 0 0 0 0 0 0 0 0 0 0 0 0 0 0 0 0 127 0" result="hardAlpha"/>
<feOffset dy="7.12"/>
<feGaussianBlur stdDeviation="22.26"/>
<feComposite in2="hardAlpha" operator="out"/>
<feColorMatrix type="matrix" values="0 0 0 0 0.4 0 0 0 0 0.2 0 0 0 0 0.6 0 0 0 1 0"/>
<feBlend mode="normal" in2="BackgroundImageFix" result="effect1_dropShadow_3264_4952"/>
<feBlend mode="normal" in="SourceGraphic" in2="effect1_dropShadow_3264_4952" result="shape"/>
</filter>
</defs>
</svg>
