<svg width="64" height="57" viewBox="0 0 64 57" fill="none" xmlns="http://www.w3.org/2000/svg">
<path d="M24.0992 12.6474C24.6096 11.7633 25.8857 11.7633 26.3962 12.6474L42.8098 41.0766C43.3202 41.9607 42.6822 43.0659 41.6613 43.0659H8.83409C7.81321 43.0659 7.17515 41.9607 7.6856 41.0766L24.0992 12.6474Z" stroke="#663399" stroke-width="2.65233"/>
<path d="M30.6021 8.64353C31.1126 7.75942 32.3887 7.75942 32.8991 8.64353L49.3127 37.0727C49.8232 37.9568 49.1851 39.062 48.1642 39.062H15.337C14.3161 39.062 13.6781 37.9568 14.1885 37.0727L30.6021 8.64353Z" stroke="#00D0FF" stroke-width="2.65233"/>
<path d="M37.6031 4.64158C38.1135 3.75747 39.3896 3.75747 39.9001 4.64158L56.3137 33.0708C56.8241 33.9549 56.1861 35.06 55.1652 35.06H22.338C21.3171 35.06 20.6791 33.9549 21.1895 33.0708L37.6031 4.64158Z" stroke="#9747FF" stroke-width="2.65233"/>
</svg>
