<svg width="168" height="222" viewBox="0 0 168 222" fill="none" xmlns="http://www.w3.org/2000/svg">
<path opacity="0.3" fill-rule="evenodd" clip-rule="evenodd" d="M74.681 0H99.6771V24.9961H87.1791V45.8264H118.008V92.4857H71.3492V79.1544H29.6884V91.6546H0.526367V62.4925H20.523V12.4982H74.681V0ZM74.681 209.135H20.523V151.644H0.526367V122.482H29.6884V142.479H71.3492V129.146H118.008V175.805H87.1791V196.636H99.6771V221.632H74.681V209.135ZM118.007 96.6526H147.17V125.815H118.007V96.6526ZM168 78.3226H153.836V92.487H168V78.3226ZM153.836 129.146H168V143.31H153.836V129.146ZM123.007 30.8282H152.169V45.8264H161.334V64.1568H143.004V59.9903H123.007V30.8282ZM161.334 169.976H152.169V189.968H123.007V160.806H143.004V151.645H161.334V169.976Z" fill="#663399"/>
</svg>
