<svg width="128" height="169" viewBox="0 0 128 169" fill="none" xmlns="http://www.w3.org/2000/svg">
<path d="M26.1612 164.839C31.0427 169.72 38.9573 169.72 43.8388 164.839L123.388 85.2893C128.27 80.4078 128.27 72.4932 123.388 67.6116C118.507 62.7301 110.592 62.7301 105.711 67.6116L35 138.322L-35.7107 67.6117C-40.5922 62.7301 -48.5068 62.7301 -53.3883 67.6117C-58.2699 72.4932 -58.2699 80.4078 -53.3883 85.2893L26.1612 164.839ZM22.5 5.46392e-07L22.5 78L47.5 78L47.5 -5.46392e-07L22.5 5.46392e-07ZM22.5 78L22.5 156L47.5 156L47.5 78L22.5 78Z" fill="#663399"/>
</svg>
