<svg width="106" height="144" viewBox="0 0 106 144" fill="none" xmlns="http://www.w3.org/2000/svg">
<g filter="url(#filter0_d_556_2238)">
<path d="M47 11H42V6H47V11ZM50.5355 128.536C48.5829 130.488 45.4171 130.488 43.4645 128.536L11.6447 96.7157C9.69204 94.7631 9.69204 91.5973 11.6447 89.6447C13.5973 87.692 16.7631 87.692 18.7157 89.6447L47 117.929L75.2843 89.6447C77.2369 87.692 80.4027 87.692 82.3553 89.6447C84.308 91.5973 84.308 94.7631 82.3553 96.7157L50.5355 128.536ZM96 16H47V6H96V16ZM52 11V125H42V11H52Z" fill="#663399"/>
</g>
<defs>
<filter id="filter0_d_556_2238" x="0.179688" y="0" width="105.82" height="144" filterUnits="userSpaceOnUse" color-interpolation-filters="sRGB">
<feFlood flood-opacity="0" result="BackgroundImageFix"/>
<feColorMatrix in="SourceAlpha" type="matrix" values="0 0 0 0 0 0 0 0 0 0 0 0 0 0 0 0 0 0 127 0" result="hardAlpha"/>
<feOffset dy="4"/>
<feGaussianBlur stdDeviation="5"/>
<feComposite in2="hardAlpha" operator="out"/>
<feColorMatrix type="matrix" values="0 0 0 0 0 0 0 0 0 0 0 0 0 0 0 0 0 0 0.25 0"/>
<feBlend mode="normal" in2="BackgroundImageFix" result="effect1_dropShadow_556_2238"/>
<feBlend mode="normal" in="SourceGraphic" in2="effect1_dropShadow_556_2238" result="shape"/>
</filter>
</defs>
</svg>
