<svg width="110" height="133" viewBox="0 0 110 133" fill="none" xmlns="http://www.w3.org/2000/svg">
<g filter="url(#filter0_d_459_1757)">
<path d="M61 12V6L49 6V12L61 12ZM50.7574 116.743C53.1005 119.086 56.8995 119.086 59.2426 116.743L97.4264 78.5589C99.7696 76.2157 99.7696 72.4167 97.4264 70.0736C95.0833 67.7304 91.2843 67.7304 88.9411 70.0736L55 104.015L21.0589 70.0736C18.7157 67.7304 14.9167 67.7304 12.5736 70.0736C10.2304 72.4167 10.2304 76.2157 12.5736 78.5589L50.7574 116.743ZM49 12L49 112.5H61L61 12L49 12Z" fill="#ffffff"/>
</g>
<defs>
<filter id="filter0_d_459_1757" x="0.816406" y="0" width="108.367" height="132.5" filterUnits="userSpaceOnUse" color-interpolation-filters="sRGB">
<feFlood flood-opacity="0" result="BackgroundImageFix"/>
<feColorMatrix in="SourceAlpha" type="matrix" values="0 0 0 0 0 0 0 0 0 0 0 0 0 0 0 0 0 0 127 0" result="hardAlpha"/>
<feOffset dy="4"/>
<feGaussianBlur stdDeviation="5"/>
<feComposite in2="hardAlpha" operator="out"/>
<feColorMatrix type="matrix" values="0 0 0 0 0 0 0 0 0 0 0 0 0 0 0 0 0 0 0.25 0"/>
<feBlend mode="normal" in2="BackgroundImageFix" result="effect1_dropShadow_459_1757"/>
<feBlend mode="normal" in="SourceGraphic" in2="effect1_dropShadow_459_1757" result="shape"/>
</filter>
</defs>
</svg>
