<svg width="213" height="213" viewBox="0 0 213 213" fill="none" xmlns="http://www.w3.org/2000/svg">
<path d="M100.531 2.17798C98.2937 4.26076 95.748 10.6634 95.748 14.1346C95.748 16.2946 98.5251 26.7856 102.382 39.205C104.233 45.2991 105.776 50.8531 105.776 51.5474C105.776 54.4016 107.319 50.6989 110.713 39.745C117.887 16.3717 118.427 12.2061 115.264 5.49499C112.565 -0.0590682 104.851 -1.83328 100.531 2.17798Z" fill="white"/>
<path d="M71.3706 6.11208C68.6707 7.80915 67.2051 11.1262 67.2051 15.7545C67.2051 22.3114 67.9765 23.6999 85.8729 49.8503L90.1156 56.0215L89.807 41.3649C89.6527 33.2653 89.3442 24.1628 89.1128 21.2315C88.1871 8.81197 79.316 1.25228 71.3706 6.11208Z" fill="white"/>
<path d="M132.158 5.95777C130.769 6.65203 128.918 8.11768 128.069 9.35192C124.829 13.9803 124.212 17.5287 123.441 36.5822C123.055 46.6876 122.824 55.0958 122.978 55.2501C123.441 55.7129 141.569 29.1768 143.806 24.7799C149.9 12.6689 142.649 0.789411 132.158 5.95777Z" fill="white"/>
<path d="M44.6811 19.7658C42.2127 21.0772 40.207 24.5485 40.207 27.4798C40.207 34.191 44.2954 39.6679 56.0978 48.6932C60.1862 51.856 66.126 56.4072 69.2116 58.7985C72.3743 61.267 75.0742 63.2726 75.3056 63.2726C75.537 63.2726 75.3827 62.5784 74.9199 61.7298C74.5342 60.9585 72.0657 54.1702 69.443 46.6876C63.4261 29.1769 62.269 26.7084 58.6434 23.0828C54.015 18.4545 49.1552 17.2974 44.6811 19.7658Z" fill="white"/>
<path d="M159.929 19.303C155.841 21.0001 152.755 24.2399 150.21 29.6397C147.895 34.4224 138.176 61.1899 138.176 62.6555C138.176 63.1955 158.232 48.1532 165.329 42.2906C171.732 37.0451 174.509 28.5598 171.732 23.16C169.726 19.2258 164.403 17.5288 159.929 19.303Z" fill="white"/>
<path d="M21.8484 42.2907C16.9886 46.8419 17.6057 52.3188 23.4683 58.1814C26.3997 61.0356 28.9453 62.7327 32.8794 64.1983C38.202 66.2811 62.5782 74.8436 63.1182 74.8436C63.5039 74.8436 46.8417 52.8588 42.6761 47.999C36.1964 40.285 26.7854 37.7394 21.8484 42.2907Z" fill="white"/>
<path d="M177.67 42.1364C173.427 44.2192 170.65 47.3047 158.308 63.6584C154.76 68.2868 151.211 72.9151 150.363 73.7637C149.206 75.075 151.828 74.3808 164.171 70.1381C182.993 63.5812 188.547 60.8813 191.555 56.6387C199.346 45.8391 189.935 36.0423 177.67 42.1364Z" fill="white"/>
<path d="M97.6763 56.87C76.7715 61.4984 61.6521 76.3092 57.5637 96.057C51.0839 127.607 74.6887 156.689 106.779 156.612C128.687 156.535 146.969 143.266 154.528 121.899C156.765 115.728 157.305 101.611 155.608 94.8999C149.746 71.6808 129.689 56.0986 106.239 56.4072C102.382 56.4843 98.5249 56.6386 97.6763 56.87ZM115.341 69.9066C135.706 75.1521 148.28 95.6713 143.189 115.342C138.483 133.393 121.435 145.581 103.153 143.961C82.0941 142.032 66.3576 122.053 69.4432 101.225C72.6831 79.3948 94.4365 64.5068 115.341 69.9066Z" fill="white"/>
<path d="M100.454 93.9742C93.5111 97.4455 90.7341 105.931 94.2054 113.028C98.7566 122.516 113.105 123.056 118.504 113.953C124.213 104.157 117.579 92.5857 106.316 92.5857C104.542 92.5857 101.919 93.2028 100.454 93.9742Z" fill="white"/>
<path d="M12.359 67.0525C4.64504 69.4438 2.25371 77.1578 7.57635 82.7119C12.6676 88.0345 18.1445 89.1916 42.6749 89.7316L56.3287 90.0401L49.6175 85.4117C28.9441 71.0638 24.0071 68.0553 20.1501 67.2068C15.7532 66.2811 15.136 66.2811 12.359 67.0525Z" fill="white"/>
<path d="M189.241 68.6724C186.156 70.0609 180.448 73.7636 163.4 85.4889L156.611 90.1172L172.271 89.7315C195.721 89.1916 200.118 88.343 205.209 83.329C209.529 78.932 209.066 72.1437 204.284 68.8267C200.967 66.5896 194.024 66.5125 189.241 68.6724Z" fill="white"/>
<path d="M8.65686 96.5198C0.402911 99.0654 -2.5284 106.471 2.40854 112.179C6.80551 117.193 12.5138 117.887 23.622 115.033C37.3528 111.408 52.5494 106.857 52.5494 106.394C52.5494 106.162 45.2211 103.848 36.2729 101.148C19.6878 96.2112 13.2852 95.1313 8.65686 96.5198Z" fill="white"/>
<path d="M192.944 96.6741C185.615 98.3712 160.545 106.085 160.545 106.625C160.545 107.011 161.008 107.242 161.625 107.242C162.242 107.242 167.719 108.785 173.813 110.636C189.781 115.573 196.183 117.27 198.806 117.27C205.903 117.27 213 111.948 213 106.779C213 98.9112 203.82 94.2828 192.944 96.6741Z" fill="white"/>
<path d="M30.1791 123.365C17.0653 123.827 16.5254 123.904 12.437 126.142C4.49156 130.461 2.33165 137.404 7.26859 142.341C12.2055 147.278 20.0738 146.738 29.1763 141.03C34.4989 137.713 53.861 124.522 55.1724 123.287C55.9438 122.67 52.3953 122.67 30.1791 123.365Z" fill="white"/>
<path d="M164.941 128.456C189.626 145.504 189.395 145.349 196.954 145.426C202.663 145.426 203.048 145.349 205.44 142.881C207.6 140.721 207.985 139.872 207.985 136.555C207.985 133.315 207.6 132.39 205.286 129.921C199.963 124.367 197.494 123.904 169.956 123.056L156.533 122.67L164.941 128.456Z" fill="white"/>
<path d="M62.4237 137.712C62.2694 137.944 55.7125 140.335 47.8443 143.035C40.0532 145.735 32.1078 148.666 30.1793 149.438C20.6911 153.603 16.1399 162.243 20.074 168.646C23.931 174.971 33.9591 173.582 41.4417 165.714C44.1416 163.014 60.958 141.338 62.8865 138.175C63.4265 137.327 63.1951 137.018 62.4237 137.712Z" fill="white"/>
<path d="M152.753 142.032C154.836 144.732 160.004 151.443 164.17 156.997C169.184 163.554 173.041 167.874 175.432 169.494C188.623 178.365 200.966 166.717 190.398 155.3C186.309 150.903 184.072 149.746 166.33 143.498C158.307 140.644 151.056 138.021 150.285 137.712C149.436 137.327 150.439 139.178 152.753 142.032Z" fill="white"/>
<path d="M61.8065 159.389C46.7643 170.883 42.4445 175.048 41.1331 179.522C39.2046 185.848 40.2845 190.167 44.5272 192.944C48.6928 195.644 54.2468 194.179 59.2609 188.856C62.1922 185.848 62.8093 184.459 69.1348 166.64C71.8347 159.234 74.3803 152.215 74.8431 150.98C75.306 149.823 75.5374 148.898 75.4603 148.975C75.3831 148.975 69.2119 153.68 61.8065 159.389Z" fill="white"/>
<path d="M138.176 150.209C138.176 150.981 146.121 174.122 148.358 179.754C152.909 191.402 161.472 197.11 168.26 193.176C171.114 191.479 172.889 188.239 172.889 184.845C172.889 181.991 170.266 176.051 167.72 173.197C164.558 169.648 138.176 149.129 138.176 150.209Z" fill="white"/>
<path d="M82.1712 168.105C77.8514 174.277 72.8373 181.759 70.9859 184.768C67.6689 189.936 67.5918 190.322 67.5918 196.493C67.5918 202.433 67.7461 202.895 69.8288 205.133C75.46 210.995 83.174 208.141 87.3396 198.653C88.8824 195.182 89.1138 193.022 89.5766 175.897C89.8852 165.483 90.1166 156.92 90.0395 156.92C89.9623 156.843 86.4139 161.857 82.1712 168.105Z" fill="white"/>
<path d="M122.746 162.089C122.823 164.789 123.132 173.505 123.44 181.451C124.057 194.873 124.212 196.184 126.14 200.196C128.532 204.978 131.617 207.524 135.706 207.987C143.96 208.99 148.202 199.887 144.345 189.628C143.111 186.465 125.755 160.16 123.209 157.615C122.978 157.306 122.746 159.389 122.746 162.089Z" fill="white"/>
<path d="M105.776 160.623C105.776 161.317 104.233 166.871 102.382 172.965C94.8991 197.264 94.5134 199.81 97.599 206.521C98.9103 209.221 100.299 210.918 101.996 211.767C107.241 214.544 113.875 211.458 115.881 205.364C117.27 201.198 116.267 191.865 113.49 182.839C112.178 178.365 110.173 171.808 109.093 168.183C107.01 161.009 105.853 158.386 105.776 160.623Z" fill="white"/>
</svg>
