<svg width="25" height="25" viewBox="0 0 25 25" fill="none" xmlns="http://www.w3.org/2000/svg">
  <path d="M10.9375 15.4756V23.1265L12.0127 24.7388C12.2446 25.0864 12.7559 25.0864 12.9878 24.7388L14.0625 23.1265V15.4756C13.5552 15.5693 13.0342 15.625 12.5 15.625C11.9658 15.625 11.4448 15.5693 10.9375 15.4756ZM12.5 0C8.6167 0 5.46875 3.14795 5.46875 7.03125C5.46875 10.9146 8.6167 14.0625 12.5 14.0625C16.3833 14.0625 19.5312 10.9146 19.5312 7.03125C19.5312 3.14795 16.3833 0 12.5 0ZM12.5 3.71094C10.6689 3.71094 9.17969 5.2002 9.17969 7.03125C9.17969 7.35449 8.91699 7.61719 8.59375 7.61719C8.27051 7.61719 8.00781 7.35449 8.00781 7.03125C8.00781 4.5542 10.0234 2.53906 12.5 2.53906C12.8232 2.53906 13.0859 2.80176 13.0859 3.125C13.0859 3.44824 12.8232 3.71094 12.5 3.71094Z" fill="#663399" fill-opacity="0.5" />
</svg>